<?xml version="1.0" encoding="UTF-8"?>
<svg width="64" height="64" version="1.1" viewBox="0 0 16.933 16.933" xmlns="http://www.w3.org/2000/svg" xmlns:cc="http://creativecommons.org/ns#" xmlns:dc="http://purl.org/dc/elements/1.1/" xmlns:rdf="http://www.w3.org/1999/02/22-rdf-syntax-ns#"><metadata><rdf:RDF><cc:Work rdf:about=""><dc:format>image/svg+xml</dc:format><dc:type rdf:resource="http://purl.org/dc/dcmitype/StillImage"/></cc:Work></rdf:RDF></metadata><path d="m8.3537 0a1.261 1.261 0 0 0-0.62828 0.23574l-7.0668 5.1344a1.261 1.261 0 0 0-0.45796 1.4101l2.6991 8.3071a1.261 1.261 0 0 0 1.1992 0.87105h8.7348a1.261 1.261 0 0 0 1.1998-0.87105l2.6991-8.3071a1.261 1.261 0 0 0-0.4585-1.4101l-7.0663-5.1344a1.261 1.261 0 0 0-0.85429-0.23574z" color="#000000" fill="#e62020" stroke-linecap="round" stroke-linejoin="round" stroke-width="2.5218" style="-inkscape-stroke:none"/><path d="m5.5528 4.8742-1.408 5.6991h2.1525c1.2409 0 2.3578-0.52089 2.6455-1.6852 0.059958-0.2427 0.066568-0.45148 0.030642-0.62846h0.61651l-1.128 4.5655h1.3712l1.128-4.5655h1.5474l0.2801-1.1337h-3.9434c0.22902-0.24178 0.40064-0.54951 0.47298-0.8423 0.27062-1.0954-0.594-1.4095-1.7737-1.4095zm1.1138 1.0418h0.56683c0.57451 0 0.80097 0.16851 0.70067 0.57451-0.096511 0.39065-0.41939 0.64349-1.0015 0.64349h-0.56693zm-0.55076 2.2291h0.68173c0.66643 0 0.95042 0.1839 0.83497 0.65116-0.12112 0.49025-0.51679 0.72767-1.1756 0.72767h-0.68173z" fill="#fff" style="font-feature-settings:normal;font-variant-caps:normal;font-variant-ligatures:normal;font-variant-numeric:normal"/></svg>
